# xmcd CD database file
#
# Track frame offsets:
#	182
#	15375
#	29960
#	43507
#	57990
#	75992
#	87607
#	103522
#	115132
#	131330
#	148367
#	162530
#
# Disc length: 2573 seconds
#
# Revision: 0
# Processed by: cddbd v1.4PL0 Copyright (c) Steve Scherf et al.
# Submitted via: CDex 1.40Release
#
DISCID=a20a0b0c
DTITLE=The Great Divide - Revolutions
DYEAR=1999
DGENRE=Country
TTITLE0=Yesterday Road
TTITLE1=San Isabella
TTITLE2=Dragon's Heart
TTITLE3=Amarillo Windmill
TTITLE4=Nowhere Town
TTITLE5=Coming Up Crows
TTITLE6=Over the Rain
TTITLE7=Wile E. Coyote
TTITLE8=Without You
TTITLE9=College Days
TTITLE10=Help Me
TTITLE11=Mr. Devil
EXTD=YEAR: 1999 ID3G: 2
EXTT0=
EXTT1=
EXTT2=
EXTT3=
EXTT4=
EXTT5=
EXTT6=
EXTT7=
EXTT8=
EXTT9=
EXTT10=
EXTT11=
PLAYORDER=
